{
	"asset":{
		"generator":"Khronos glTF Blender I/O v4.5.47",
		"version":"2.0"
	},
	"scene":0,
	"scenes":[
		{
			"name":"Scene",
			"nodes":[
				0,
				1,
				2,
				3,
				4
			]
		}
	],
	"nodes":[
		{
			"mesh":0,
			"name":"Cube.003",
			"scale":[
				1,
				1.4811182022094727,
				1
			],
			"translation":[
				0,
				0.7199609875679016,
				20.73647689819336
			]
		},
		{
			"mesh":1,
			"name":"Cube.004",
			"rotation":[
				-0.02756759338080883,
				0.005741212982684374,
				-0.09861396253108978,
				0.994727373123169
			],
			"scale":[
				0.23380911350250244,
				0.36456552147865295,
				0.23380912840366364
			],
			"translation":[
				1.3958879709243774,
				0.0808243378996849,
				21.37002944946289
			]
		},
		{
			"mesh":2,
			"name":"Cube.005",
			"translation":[
				0,
				4.4847092628479,
				20.73647689819336
			]
		},
		{
			"mesh":3,
			"name":"Cube.006",
			"scale":[
				3.5823333263397217,
				4.732327938079834,
				3.5823333263397217
			],
			"translation":[
				0,
				1.8748983144760132,
				20.73647689819336
			]
		},
		{
			"mesh":4,
			"name":"Cube.007",
			"rotation":[
				-0.04338183254003525,
				0.30435049533843994,
				0.0018805129220709205,
				0.9515699148178101
			],
			"translation":[
				2.0653533935546875,
				-7.208587169647217,
				19.37069320678711
			]
		}
	],
	"materials":[
		{
			"doubleSided":true,
			"name":"Material.006",
			"pbrMetallicRoughness":{
				"baseColorFactor":[
					0.6654118299484253,
					0.13034716248512268,
					0.0034921932965517044,
					1
				],
				"metallicFactor":0,
				"roughnessFactor":0.5795454382896423
			}
		},
		{
			"doubleSided":true,
			"name":"Material.005",
			"pbrMetallicRoughness":{
				"baseColorFactor":[
					1,
					0.7051205039024353,
					0.2819514870643616,
					1
				],
				"metallicFactor":0,
				"roughnessFactor":0.13636362552642822
			}
		},
		{
			"doubleSided":true,
			"name":"Material.004",
			"pbrMetallicRoughness":{
				"baseColorFactor":[
					0.13923269510269165,
					0.5619321465492249,
					0.8002911806106567,
					1
				],
				"metallicFactor":0,
				"roughnessFactor":0.13181817531585693
			}
		},
		{
			"alphaMode":"BLEND",
			"doubleSided":true,
			"name":"Material.002",
			"pbrMetallicRoughness":{
				"baseColorFactor":[
					1,
					1,
					1,
					0.45454543828964233
				],
				"baseColorTexture":{
					"index":0
				},
				"metallicFactor":0,
				"roughnessFactor":0.29999998211860657
			}
		},
		{
			"doubleSided":true,
			"name":"Material.003",
			"pbrMetallicRoughness":{
				"baseColorTexture":{
					"index":1
				},
				"metallicFactor":0,
				"roughnessFactor":0.15454545617103577
			}
		}
	],
	"meshes":[
		{
			"name":"Cube.012",
			"primitives":[
				{
					"attributes":{
						"POSITION":0,
						"NORMAL":1,
						"TEXCOORD_0":2
					},
					"indices":3,
					"material":0
				}
			]
		},
		{
			"name":"Cube.013",
			"primitives":[
				{
					"attributes":{
						"POSITION":4,
						"NORMAL":5,
						"TEXCOORD_0":6
					},
					"indices":7,
					"material":1
				}
			]
		},
		{
			"name":"Cube.015",
			"primitives":[
				{
					"attributes":{
						"POSITION":8,
						"NORMAL":9,
						"TEXCOORD_0":10
					},
					"indices":11,
					"material":2
				}
			]
		},
		{
			"name":"Cube.016",
			"primitives":[
				{
					"attributes":{
						"POSITION":12,
						"NORMAL":13,
						"TEXCOORD_0":14
					},
					"indices":15,
					"material":3
				}
			]
		},
		{
			"name":"Cube.017",
			"primitives":[
				{
					"attributes":{
						"POSITION":16,
						"NORMAL":17
					},
					"indices":18,
					"material":4
				}
			]
		}
	],
	"textures":[
		{
			"sampler":0,
			"source":0
		},
		{
			"sampler":0,
			"source":0
		}
	],
	"images":[
		{
			"mimeType":"image/png",
			"name":"light-blue.png",
			"uri":"light-blue.png.png"
		}
	],
	"accessors":[
		{
			"bufferView":0,
			"componentType":5126,
			"count":1310,
			"max":[
				1.9410241842269897,
				1.7231571674346924,
				2.1111061573028564
			],
			"min":[
				-1.9410241842269897,
				-2.2814042568206787,
				-2.1111059188842773
			],
			"type":"VEC3"
		},
		{
			"bufferView":1,
			"componentType":5126,
			"count":1310,
			"type":"VEC3"
		},
		{
			"bufferView":2,
			"componentType":5126,
			"count":1310,
			"type":"VEC2"
		},
		{
			"bufferView":3,
			"componentType":5123,
			"count":7680,
			"type":"SCALAR"
		},
		{
			"bufferView":4,
			"componentType":5126,
			"count":442,
			"max":[
				1.9198024272918701,
				2.80427622795105,
				1.6359388828277588
			],
			"min":[
				-1.9037559032440186,
				-1.6359387636184692,
				-7.323296546936035
			],
			"type":"VEC3"
		},
		{
			"bufferView":5,
			"componentType":5126,
			"count":442,
			"type":"VEC3"
		},
		{
			"bufferView":6,
			"componentType":5126,
			"count":442,
			"type":"VEC2"
		},
		{
			"bufferView":7,
			"componentType":5123,
			"count":2304,
			"type":"SCALAR"
		},
		{
			"bufferView":8,
			"componentType":5126,
			"count":1674,
			"max":[
				3.1767258644104004,
				1.0530736446380615,
				3.1767258644104004
			],
			"min":[
				-3.1767258644104004,
				-2.80281662940979,
				-3.1767258644104004
			],
			"type":"VEC3"
		},
		{
			"bufferView":9,
			"componentType":5126,
			"count":1674,
			"type":"VEC3"
		},
		{
			"bufferView":10,
			"componentType":5126,
			"count":1674,
			"type":"VEC2"
		},
		{
			"bufferView":11,
			"componentType":5123,
			"count":9408,
			"type":"SCALAR"
		},
		{
			"bufferView":12,
			"componentType":5126,
			"count":1215,
			"max":[
				1.170562744140625,
				1.276316523551941,
				1.170562744140625
			],
			"min":[
				-1.170562744140625,
				-1.1417051553726196,
				-1.170562744140625
			],
			"type":"VEC3"
		},
		{
			"bufferView":13,
			"componentType":5126,
			"count":1215,
			"type":"VEC3"
		},
		{
			"bufferView":14,
			"componentType":5126,
			"count":1215,
			"type":"VEC2"
		},
		{
			"bufferView":15,
			"componentType":5123,
			"count":7056,
			"type":"SCALAR"
		},
		{
			"bufferView":16,
			"componentType":5126,
			"count":10200,
			"max":[
				1.0725877285003662,
				4.206363677978516,
				3.2981228828430176
			],
			"min":[
				-5.846891403198242,
				-4.956636428833008,
				-4.019408226013184
			],
			"type":"VEC3"
		},
		{
			"bufferView":17,
			"componentType":5126,
			"count":10200,
			"type":"VEC3"
		},
		{
			"bufferView":18,
			"componentType":5123,
			"count":61056,
			"type":"SCALAR"
		}
	],
	"bufferViews":[
		{
			"buffer":0,
			"byteLength":15720,
			"byteOffset":0,
			"target":34962
		},
		{
			"buffer":0,
			"byteLength":15720,
			"byteOffset":15720,
			"target":34962
		},
		{
			"buffer":0,
			"byteLength":10480,
			"byteOffset":31440,
			"target":34962
		},
		{
			"buffer":0,
			"byteLength":15360,
			"byteOffset":41920,
			"target":34963
		},
		{
			"buffer":0,
			"byteLength":5304,
			"byteOffset":57280,
			"target":34962
		},
		{
			"buffer":0,
			"byteLength":5304,
			"byteOffset":62584,
			"target":34962
		},
		{
			"buffer":0,
			"byteLength":3536,
			"byteOffset":67888,
			"target":34962
		},
		{
			"buffer":0,
			"byteLength":4608,
			"byteOffset":71424,
			"target":34963
		},
		{
			"buffer":0,
			"byteLength":20088,
			"byteOffset":76032,
			"target":34962
		},
		{
			"buffer":0,
			"byteLength":20088,
			"byteOffset":96120,
			"target":34962
		},
		{
			"buffer":0,
			"byteLength":13392,
			"byteOffset":116208,
			"target":34962
		},
		{
			"buffer":0,
			"byteLength":18816,
			"byteOffset":129600,
			"target":34963
		},
		{
			"buffer":0,
			"byteLength":14580,
			"byteOffset":148416,
			"target":34962
		},
		{
			"buffer":0,
			"byteLength":14580,
			"byteOffset":162996,
			"target":34962
		},
		{
			"buffer":0,
			"byteLength":9720,
			"byteOffset":177576,
			"target":34962
		},
		{
			"buffer":0,
			"byteLength":14112,
			"byteOffset":187296,
			"target":34963
		},
		{
			"buffer":0,
			"byteLength":122400,
			"byteOffset":201408,
			"target":34962
		},
		{
			"buffer":0,
			"byteLength":122400,
			"byteOffset":323808,
			"target":34962
		},
		{
			"buffer":0,
			"byteLength":122112,
			"byteOffset":446208,
			"target":34963
		}
	],
	"samplers":[
		{
			"magFilter":9729,
			"minFilter":9987
		}
	],
	"buffers":[
		{
			"byteLength":568320,
			"uri":"ImmortalJelly_Loop_GameJam.bin"
		}
	]
}
