{
	"asset":{
		"generator":"Khronos glTF Blender I/O v4.5.47",
		"version":"2.0"
	},
	"scene":0,
	"scenes":[
		{
			"name":"Scene",
			"nodes":[
				0,
				1,
				2,
				3,
				4,
				5,
				6,
				7,
				8
			]
		}
	],
	"nodes":[
		{
			"mesh":0,
			"name":"Cube.002",
			"scale":[
				0.8685683012008667,
				0.8685683012008667,
				0.8685683012008667
			],
			"translation":[
				2.2666478157043457,
				-2.337646961212158,
				-25.0246524810791
			]
		},
		{
			"mesh":1,
			"name":"Cube.008",
			"scale":[
				0.8309091925621033,
				0.8309091925621033,
				0.8309091925621033
			],
			"translation":[
				2.249210834503174,
				-5.339090824127197,
				-25.060556411743164
			]
		},
		{
			"mesh":2,
			"name":"Cube.010",
			"rotation":[
				-0.25127026438713074,
				0.045879025012254715,
				-0.011436110362410545,
				0.9667614102363586
			],
			"scale":[
				1.3189865350723267,
				1.3189865350723267,
				3.185790538787842
			],
			"translation":[
				5.7430548667907715,
				-2.2156708240509033,
				-28.131427764892578
			]
		},
		{
			"mesh":3,
			"name":"Cube.011",
			"scale":[
				0.8685683012008667,
				0.8685683012008667,
				0.8685683012008667
			],
			"translation":[
				3.982455253601074,
				-1.498807430267334,
				-26.81671905517578
			]
		},
		{
			"mesh":4,
			"name":"Cube.012",
			"scale":[
				0.781477689743042,
				0.781477689743042,
				0.781477689743042
			],
			"translation":[
				5.300935745239258,
				1.1976261138916016,
				-27.287019729614258
			]
		},
		{
			"mesh":5,
			"name":"Cube.015",
			"rotation":[
				-0.18112404644489288,
				0.24593578279018402,
				0.027427973225712776,
				0.9518179297447205
			],
			"scale":[
				0.7181018590927124,
				0.7181017994880676,
				0.7181018590927124
			],
			"translation":[
				-0.724679708480835,
				-3.212794780731201,
				-28.512441635131836
			]
		},
		{
			"mesh":6,
			"name":"Cube.009",
			"rotation":[
				0.9946626424789429,
				0.04256343096494675,
				-0.055215608328580856,
				0.07606441527605057
			],
			"scale":[
				0.7125064730644226,
				0.7125063538551331,
				1.720939040184021
			],
			"translation":[
				4.6509575843811035,
				-3.3947336673736572,
				-22.88627052307129
			]
		},
		{
			"mesh":7,
			"name":"Cube.019",
			"rotation":[
				0.3595963716506958,
				0,
				0,
				0.9331079721450806
			],
			"scale":[
				0.624436616897583,
				0.6244367361068726,
				0.6244367361068726
			],
			"translation":[
				0.3490147590637207,
				0.06607604026794434,
				-28.940122604370117
			]
		},
		{
			"mesh":8,
			"name":"Cube.024",
			"rotation":[
				0.43335288763046265,
				-0.5786054730415344,
				0.50810706615448,
				0.46823951601982117
			],
			"scale":[
				0.3496246933937073,
				0.34962472319602966,
				0.3496248722076416
			],
			"translation":[
				1.477745532989502,
				1.7187631130218506,
				-25.087696075439453
			]
		}
	],
	"materials":[
		{
			"doubleSided":true,
			"name":"Material.009",
			"pbrMetallicRoughness":{
				"baseColorFactor":[
					0.8002749681472778,
					0.34667351841926575,
					0.19565752148628235,
					1
				],
				"metallicFactor":0,
				"roughnessFactor":0.5
			}
		},
		{
			"doubleSided":true,
			"name":"Material.007",
			"pbrMetallicRoughness":{
				"baseColorFactor":[
					0.9288758039474487,
					0.07526116073131561,
					0.010005278512835503,
					1
				],
				"metallicFactor":0.1931818127632141,
				"roughnessFactor":0.5522727370262146
			}
		},
		{
			"doubleSided":true,
			"name":"Material.008",
			"pbrMetallicRoughness":{
				"baseColorFactor":[
					0.3705440163612366,
					0.03743212670087814,
					0.006929141003638506,
					1
				],
				"metallicFactor":0,
				"roughnessFactor":0.5
			}
		},
		{
			"doubleSided":true,
			"name":"Material.010",
			"pbrMetallicRoughness":{
				"baseColorFactor":[
					0.027252312749624252,
					0.00966684240847826,
					0.10306767374277115,
					1
				],
				"metallicFactor":0,
				"roughnessFactor":0.5
			}
		}
	],
	"meshes":[
		{
			"name":"Cube.021",
			"primitives":[
				{
					"attributes":{
						"POSITION":0,
						"NORMAL":1,
						"TEXCOORD_0":2
					},
					"indices":3,
					"material":0
				}
			]
		},
		{
			"name":"Cube.022",
			"primitives":[
				{
					"attributes":{
						"POSITION":4,
						"NORMAL":5,
						"TEXCOORD_0":6
					},
					"indices":7,
					"material":1
				}
			]
		},
		{
			"name":"Cube.024",
			"primitives":[
				{
					"attributes":{
						"POSITION":8,
						"NORMAL":9,
						"TEXCOORD_0":10
					},
					"indices":11,
					"material":1
				}
			]
		},
		{
			"name":"Cube.025",
			"primitives":[
				{
					"attributes":{
						"POSITION":12,
						"NORMAL":13
					},
					"indices":14,
					"material":2
				}
			]
		},
		{
			"name":"Cube.026",
			"primitives":[
				{
					"attributes":{
						"POSITION":15,
						"NORMAL":16,
						"TEXCOORD_0":17
					},
					"indices":18,
					"material":3
				}
			]
		},
		{
			"name":"Cube.029",
			"primitives":[
				{
					"attributes":{
						"POSITION":19,
						"NORMAL":20
					},
					"indices":21,
					"material":2
				}
			]
		},
		{
			"name":"Cube.030",
			"primitives":[
				{
					"attributes":{
						"POSITION":22,
						"NORMAL":23,
						"TEXCOORD_0":24
					},
					"indices":11,
					"material":2
				}
			]
		},
		{
			"name":"Cube.036",
			"primitives":[
				{
					"attributes":{
						"POSITION":25,
						"NORMAL":26
					},
					"indices":27,
					"material":2
				}
			]
		},
		{
			"name":"Cube.041",
			"primitives":[
				{
					"attributes":{
						"POSITION":28,
						"NORMAL":29
					},
					"indices":30,
					"material":2
				}
			]
		}
	],
	"accessors":[
		{
			"bufferView":0,
			"componentType":5126,
			"count":71,
			"max":[
				2.124824047088623,
				2.458871603012085,
				4.884967803955078
			],
			"min":[
				-7.189952850341797,
				-3.118277072906494,
				-4.884968280792236
			],
			"type":"VEC3"
		},
		{
			"bufferView":1,
			"componentType":5126,
			"count":71,
			"type":"VEC3"
		},
		{
			"bufferView":2,
			"componentType":5126,
			"count":71,
			"type":"VEC2"
		},
		{
			"bufferView":3,
			"componentType":5123,
			"count":330,
			"type":"SCALAR"
		},
		{
			"bufferView":4,
			"componentType":5126,
			"count":848,
			"max":[
				3.8596560955047607,
				9.139041900634766,
				8.867738723754883
			],
			"min":[
				-8.395339012145996,
				1.7705867290496826,
				-8.867738723754883
			],
			"type":"VEC3"
		},
		{
			"bufferView":5,
			"componentType":5126,
			"count":848,
			"type":"VEC3"
		},
		{
			"bufferView":6,
			"componentType":5126,
			"count":848,
			"type":"VEC2"
		},
		{
			"bufferView":7,
			"componentType":5123,
			"count":4794,
			"type":"SCALAR"
		},
		{
			"bufferView":8,
			"componentType":5126,
			"count":797,
			"max":[
				1.7448731660842896,
				1.8256267309188843,
				0.8523604273796082
			],
			"min":[
				-1.64118492603302,
				-2.157646656036377,
				-0.9316016435623169
			],
			"type":"VEC3"
		},
		{
			"bufferView":9,
			"componentType":5126,
			"count":797,
			"type":"VEC3"
		},
		{
			"bufferView":10,
			"componentType":5126,
			"count":797,
			"type":"VEC2"
		},
		{
			"bufferView":11,
			"componentType":5123,
			"count":4224,
			"type":"SCALAR"
		},
		{
			"bufferView":12,
			"componentType":5126,
			"count":756,
			"max":[
				2.1700940132141113,
				3.9437918663024902,
				5.545680522918701
			],
			"min":[
				0.025539856404066086,
				-0.1482342928647995,
				-1.5018728971481323
			],
			"type":"VEC3"
		},
		{
			"bufferView":13,
			"componentType":5126,
			"count":756,
			"type":"VEC3"
		},
		{
			"bufferView":14,
			"componentType":5123,
			"count":4512,
			"type":"SCALAR"
		},
		{
			"bufferView":15,
			"componentType":5126,
			"count":152,
			"max":[
				0.6001358032226562,
				0.6001358032226562,
				6.298222541809082
			],
			"min":[
				-0.6001355648040771,
				-0.6001355648040771,
				-0.6001355648040771
			],
			"type":"VEC3"
		},
		{
			"bufferView":16,
			"componentType":5126,
			"count":152,
			"type":"VEC3"
		},
		{
			"bufferView":17,
			"componentType":5126,
			"count":152,
			"type":"VEC2"
		},
		{
			"bufferView":18,
			"componentType":5123,
			"count":648,
			"type":"SCALAR"
		},
		{
			"bufferView":19,
			"componentType":5126,
			"count":764,
			"max":[
				4.363211154937744,
				1.8722383975982666,
				12.72055435180664
			],
			"min":[
				-8.759974479675293,
				-6.94986629486084,
				-4.787269115447998
			],
			"type":"VEC3"
		},
		{
			"bufferView":20,
			"componentType":5126,
			"count":764,
			"type":"VEC3"
		},
		{
			"bufferView":21,
			"componentType":5123,
			"count":4512,
			"type":"SCALAR"
		},
		{
			"bufferView":22,
			"componentType":5126,
			"count":797,
			"max":[
				1.715155839920044,
				1.8146475553512573,
				0.8309246301651001
			],
			"min":[
				-1.9139046669006348,
				-2.1021509170532227,
				-1.3084684610366821
			],
			"type":"VEC3"
		},
		{
			"bufferView":23,
			"componentType":5126,
			"count":797,
			"type":"VEC3"
		},
		{
			"bufferView":24,
			"componentType":5126,
			"count":797,
			"type":"VEC2"
		},
		{
			"bufferView":25,
			"componentType":5126,
			"count":1088,
			"max":[
				4.394889831542969,
				11.511332511901855,
				15.958706855773926
			],
			"min":[
				-4.281446933746338,
				-6.473062515258789,
				-3.820505380630493
			],
			"type":"VEC3"
		},
		{
			"bufferView":26,
			"componentType":5126,
			"count":1088,
			"type":"VEC3"
		},
		{
			"bufferView":27,
			"componentType":5123,
			"count":6336,
			"type":"SCALAR"
		},
		{
			"bufferView":28,
			"componentType":5126,
			"count":190,
			"max":[
				0.579619288444519,
				0.6547884941101074,
				0.04094787687063217
			],
			"min":[
				-1.3956762552261353,
				-4.894786834716797,
				-2.1691579818725586
			],
			"type":"VEC3"
		},
		{
			"bufferView":29,
			"componentType":5126,
			"count":190,
			"type":"VEC3"
		},
		{
			"bufferView":30,
			"componentType":5123,
			"count":1104,
			"type":"SCALAR"
		}
	],
	"bufferViews":[
		{
			"buffer":0,
			"byteLength":852,
			"byteOffset":0,
			"target":34962
		},
		{
			"buffer":0,
			"byteLength":852,
			"byteOffset":852,
			"target":34962
		},
		{
			"buffer":0,
			"byteLength":568,
			"byteOffset":1704,
			"target":34962
		},
		{
			"buffer":0,
			"byteLength":660,
			"byteOffset":2272,
			"target":34963
		},
		{
			"buffer":0,
			"byteLength":10176,
			"byteOffset":2932,
			"target":34962
		},
		{
			"buffer":0,
			"byteLength":10176,
			"byteOffset":13108,
			"target":34962
		},
		{
			"buffer":0,
			"byteLength":6784,
			"byteOffset":23284,
			"target":34962
		},
		{
			"buffer":0,
			"byteLength":9588,
			"byteOffset":30068,
			"target":34963
		},
		{
			"buffer":0,
			"byteLength":9564,
			"byteOffset":39656,
			"target":34962
		},
		{
			"buffer":0,
			"byteLength":9564,
			"byteOffset":49220,
			"target":34962
		},
		{
			"buffer":0,
			"byteLength":6376,
			"byteOffset":58784,
			"target":34962
		},
		{
			"buffer":0,
			"byteLength":8448,
			"byteOffset":65160,
			"target":34963
		},
		{
			"buffer":0,
			"byteLength":9072,
			"byteOffset":73608,
			"target":34962
		},
		{
			"buffer":0,
			"byteLength":9072,
			"byteOffset":82680,
			"target":34962
		},
		{
			"buffer":0,
			"byteLength":9024,
			"byteOffset":91752,
			"target":34963
		},
		{
			"buffer":0,
			"byteLength":1824,
			"byteOffset":100776,
			"target":34962
		},
		{
			"buffer":0,
			"byteLength":1824,
			"byteOffset":102600,
			"target":34962
		},
		{
			"buffer":0,
			"byteLength":1216,
			"byteOffset":104424,
			"target":34962
		},
		{
			"buffer":0,
			"byteLength":1296,
			"byteOffset":105640,
			"target":34963
		},
		{
			"buffer":0,
			"byteLength":9168,
			"byteOffset":106936,
			"target":34962
		},
		{
			"buffer":0,
			"byteLength":9168,
			"byteOffset":116104,
			"target":34962
		},
		{
			"buffer":0,
			"byteLength":9024,
			"byteOffset":125272,
			"target":34963
		},
		{
			"buffer":0,
			"byteLength":9564,
			"byteOffset":134296,
			"target":34962
		},
		{
			"buffer":0,
			"byteLength":9564,
			"byteOffset":143860,
			"target":34962
		},
		{
			"buffer":0,
			"byteLength":6376,
			"byteOffset":153424,
			"target":34962
		},
		{
			"buffer":0,
			"byteLength":13056,
			"byteOffset":159800,
			"target":34962
		},
		{
			"buffer":0,
			"byteLength":13056,
			"byteOffset":172856,
			"target":34962
		},
		{
			"buffer":0,
			"byteLength":12672,
			"byteOffset":185912,
			"target":34963
		},
		{
			"buffer":0,
			"byteLength":2280,
			"byteOffset":198584,
			"target":34962
		},
		{
			"buffer":0,
			"byteLength":2280,
			"byteOffset":200864,
			"target":34962
		},
		{
			"buffer":0,
			"byteLength":2208,
			"byteOffset":203144,
			"target":34963
		}
	],
	"buffers":[
		{
			"byteLength":205352,
			"uri":"ImmortalJelly_Loop_GameJam.bin"
		}
	]
}
