{
	"asset":{
		"generator":"Khronos glTF Blender I/O v4.5.47",
		"version":"2.0"
	},
	"scene":0,
	"scenes":[
		{
			"name":"Scene",
			"nodes":[
				0,
				1,
				2,
				3,
				4,
				5,
				6,
				7,
				8,
				9,
				10
			]
		}
	],
	"nodes":[
		{
			"mesh":0,
			"name":"Cube.013",
			"scale":[
				1.4059715270996094,
				1.4059715270996094,
				1.4059715270996094
			],
			"translation":[
				0.0831611156463623,
				-2.854125499725342,
				-0.015392720699310303
			]
		},
		{
			"mesh":1,
			"name":"Cube.014",
			"scale":[
				1.4059715270996094,
				1.4059715270996094,
				1.4059715270996094
			],
			"translation":[
				0.0831611156463623,
				-2.854125499725342,
				-0.015392720699310303
			]
		},
		{
			"mesh":2,
			"name":"Cube.018",
			"scale":[
				1.4059715270996094,
				1.4059715270996094,
				1.4059715270996094
			],
			"translation":[
				0.8194048404693604,
				1.189685583114624,
				-0.015280067920684814
			]
		},
		{
			"mesh":3,
			"name":"Cube.016",
			"scale":[
				1.4059715270996094,
				1.4059715270996094,
				1.4059715270996094
			],
			"translation":[
				0.0831611156463623,
				-2.854125499725342,
				-0.015392720699310303
			]
		},
		{
			"mesh":4,
			"name":"Cube.017",
			"rotation":[
				0.03871282562613487,
				-0.1963072568178177,
				-0.006360250059515238,
				0.9797573089599609
			],
			"scale":[
				1.531462550163269,
				1.5314626693725586,
				1.5314627885818481
			],
			"translation":[
				4.8907294273376465,
				-5.967011451721191,
				6.791426181793213
			]
		},
		{
			"mesh":5,
			"name":"Cube.020",
			"rotation":[
				-0.07251771539449692,
				0.027099426835775375,
				-0.13200004398822784,
				0.988222062587738
			],
			"scale":[
				1.4059715270996094,
				1.4059715270996094,
				1.4059715270996094
			],
			"translation":[
				-4.244963645935059,
				-4.276362419128418,
				4.340179443359375
			]
		},
		{
			"mesh":6,
			"name":"Cube.021",
			"scale":[
				1.4059715270996094,
				1.4059715270996094,
				1.4059715270996094
			],
			"translation":[
				-5.80784797668457,
				-2.452465772628784,
				-0.015392720699310303
			]
		},
		{
			"mesh":7,
			"name":"Cube.022",
			"rotation":[
				0,
				0,
				0.21238160133361816,
				0.9771867990493774
			],
			"scale":[
				2.118380546569824,
				2.118380546569824,
				2.118380069732666
			],
			"translation":[
				11.710567474365234,
				-1.25040602684021,
				-0.16138553619384766
			]
		},
		{
			"mesh":8,
			"name":"Cube.023",
			"rotation":[
				0,
				0,
				0.21238161623477936,
				0.9771867990493774
			],
			"scale":[
				2.413099765777588,
				2.413099765777588,
				2.413099527359009
			],
			"translation":[
				12.861285209655762,
				1.3641278743743896,
				1.6777676343917847
			]
		},
		{
			"mesh":9,
			"name":"Cube.025",
			"rotation":[
				0,
				0,
				0.21238160133361816,
				0.9771867990493774
			],
			"scale":[
				3.5556371212005615,
				2.118380546569824,
				2.118380069732666
			],
			"translation":[
				12.029516220092773,
				-3.1331446170806885,
				-0.1613861322402954
			]
		},
		{
			"mesh":10,
			"name":"Cube.026",
			"translation":[
				12.286213874816895,
				1.9664995670318604,
				2.3952479362487793
			]
		}
	],
	"materials":[
		{
			"doubleSided":true,
			"name":"Material.011",
			"pbrMetallicRoughness":{
				"baseColorTexture":{
					"index":0
				},
				"metallicFactor":0,
				"roughnessFactor":0.581818163394928
			}
		},
		{
			"doubleSided":true,
			"name":"Material.012",
			"pbrMetallicRoughness":{
				"baseColorFactor":[
					0.03198555111885071,
					0.029542239382863045,
					0.13343912363052368,
					1
				],
				"metallicFactor":0,
				"roughnessFactor":0.5
			}
		},
		{
			"doubleSided":true,
			"name":"Material.013",
			"pbrMetallicRoughness":{
				"baseColorFactor":[
					0.05632389336824417,
					0.07038436830043793,
					0.19997553527355194,
					1
				],
				"metallicFactor":0,
				"roughnessFactor":0.5
			}
		},
		{
			"doubleSided":true,
			"name":"Material.014",
			"pbrMetallicRoughness":{
				"baseColorFactor":[
					0.23227562010288239,
					0.5983744263648987,
					0.6700441837310791,
					1
				],
				"metallicFactor":0,
				"roughnessFactor":0.5113636255264282
			}
		}
	],
	"meshes":[
		{
			"name":"Cube.048",
			"primitives":[
				{
					"attributes":{
						"POSITION":0,
						"NORMAL":1,
						"TEXCOORD_0":2
					},
					"indices":3,
					"material":0
				}
			]
		},
		{
			"name":"Cube.050",
			"primitives":[
				{
					"attributes":{
						"POSITION":4,
						"NORMAL":5,
						"TEXCOORD_0":6
					},
					"indices":7,
					"material":1
				}
			]
		},
		{
			"name":"Cube.053",
			"primitives":[
				{
					"attributes":{
						"POSITION":8,
						"NORMAL":9
					},
					"indices":10,
					"material":1
				}
			]
		},
		{
			"name":"Cube.054",
			"primitives":[
				{
					"attributes":{
						"POSITION":11,
						"NORMAL":12
					},
					"indices":13,
					"material":1
				}
			]
		},
		{
			"name":"Cube.055",
			"primitives":[
				{
					"attributes":{
						"POSITION":14,
						"NORMAL":15,
						"TEXCOORD_0":16
					},
					"indices":17,
					"material":2
				}
			]
		},
		{
			"name":"Cube.056",
			"primitives":[
				{
					"attributes":{
						"POSITION":18,
						"NORMAL":19,
						"TEXCOORD_0":20
					},
					"indices":21,
					"material":2
				}
			]
		},
		{
			"name":"Cube.057",
			"primitives":[
				{
					"attributes":{
						"POSITION":22,
						"NORMAL":23
					},
					"indices":24,
					"material":2
				}
			]
		},
		{
			"name":"Cube.061",
			"primitives":[
				{
					"attributes":{
						"POSITION":25,
						"NORMAL":26,
						"TEXCOORD_0":27
					},
					"indices":28,
					"material":2
				}
			]
		},
		{
			"name":"Cube.062",
			"primitives":[
				{
					"attributes":{
						"POSITION":29,
						"NORMAL":30,
						"TEXCOORD_0":31
					},
					"indices":32,
					"material":3
				}
			]
		},
		{
			"name":"Cube.063",
			"primitives":[
				{
					"attributes":{
						"POSITION":33,
						"NORMAL":34,
						"TEXCOORD_0":35
					},
					"indices":36,
					"material":1
				}
			]
		},
		{
			"name":"Cube.064",
			"primitives":[
				{
					"attributes":{
						"POSITION":37,
						"NORMAL":38
					},
					"indices":39,
					"material":1
				}
			]
		}
	],
	"textures":[
		{
			"sampler":0,
			"source":0
		}
	],
	"images":[
		{
			"mimeType":"image/jpeg",
			"name":"1381169-0220-px",
			"uri":"1381169-0220-px.jpg"
		}
	],
	"accessors":[
		{
			"bufferView":0,
			"componentType":5126,
			"count":143,
			"max":[
				6.452052116394043,
				5.469537734985352,
				3.8202409744262695
			],
			"min":[
				-6.635463714599609,
				-0.32153961062431335,
				-3.8202409744262695
			],
			"type":"VEC3"
		},
		{
			"bufferView":1,
			"componentType":5126,
			"count":143,
			"type":"VEC3"
		},
		{
			"bufferView":2,
			"componentType":5126,
			"count":143,
			"type":"VEC2"
		},
		{
			"bufferView":3,
			"componentType":5123,
			"count":660,
			"type":"SCALAR"
		},
		{
			"bufferView":4,
			"componentType":5126,
			"count":192,
			"max":[
				7.062301158905029,
				5.148017883300781,
				2.931198835372925
			],
			"min":[
				-4.9158830642700195,
				-0.6259535551071167,
				-2.931198835372925
			],
			"type":"VEC3"
		},
		{
			"bufferView":5,
			"componentType":5126,
			"count":192,
			"type":"VEC3"
		},
		{
			"bufferView":6,
			"componentType":5126,
			"count":192,
			"type":"VEC2"
		},
		{
			"bufferView":7,
			"componentType":5123,
			"count":906,
			"type":"SCALAR"
		},
		{
			"bufferView":8,
			"componentType":5126,
			"count":7698,
			"max":[
				5.993476390838623,
				2.668698310852051,
				3.399756669998169
			],
			"min":[
				-7.146587371826172,
				-3.0282583236694336,
				-3.3999171257019043
			],
			"type":"VEC3"
		},
		{
			"bufferView":9,
			"componentType":5126,
			"count":7698,
			"type":"VEC3"
		},
		{
			"bufferView":10,
			"componentType":5123,
			"count":46128,
			"type":"SCALAR"
		},
		{
			"bufferView":11,
			"componentType":5126,
			"count":1344,
			"max":[
				6.836511135101318,
				2.849536418914795,
				4.041329383850098
			],
			"min":[
				-6.860896587371826,
				-0.49934935569763184,
				-4.041329383850098
			],
			"type":"VEC3"
		},
		{
			"bufferView":12,
			"componentType":5126,
			"count":1344,
			"type":"VEC3"
		},
		{
			"bufferView":13,
			"componentType":5123,
			"count":8064,
			"type":"SCALAR"
		},
		{
			"bufferView":14,
			"componentType":5126,
			"count":318,
			"max":[
				1.6769819259643555,
				2.110042095184326,
				3.2455859184265137
			],
			"min":[
				-6.7619524002075195,
				-3.004436731338501,
				-10.054656028747559
			],
			"type":"VEC3"
		},
		{
			"bufferView":15,
			"componentType":5126,
			"count":318,
			"type":"VEC3"
		},
		{
			"bufferView":16,
			"componentType":5126,
			"count":318,
			"type":"VEC2"
		},
		{
			"bufferView":17,
			"componentType":5123,
			"count":1536,
			"type":"SCALAR"
		},
		{
			"bufferView":18,
			"componentType":5126,
			"count":284,
			"max":[
				1.8664731979370117,
				2.3978657722473145,
				1.508481740951538
			],
			"min":[
				-2.0792601108551025,
				-1.8503527641296387,
				-7.955846309661865
			],
			"type":"VEC3"
		},
		{
			"bufferView":19,
			"componentType":5126,
			"count":284,
			"type":"VEC3"
		},
		{
			"bufferView":20,
			"componentType":5126,
			"count":284,
			"type":"VEC2"
		},
		{
			"bufferView":21,
			"componentType":5123,
			"count":1344,
			"type":"SCALAR"
		},
		{
			"bufferView":22,
			"componentType":5126,
			"count":154,
			"max":[
				1.1700453758239746,
				0.6279964447021484,
				2.9045677185058594
			],
			"min":[
				-4.870079040527344,
				-2.0398552417755127,
				-1.1156730651855469
			],
			"type":"VEC3"
		},
		{
			"bufferView":23,
			"componentType":5126,
			"count":154,
			"type":"VEC3"
		},
		{
			"bufferView":24,
			"componentType":5123,
			"count":912,
			"type":"SCALAR"
		},
		{
			"bufferView":25,
			"componentType":5126,
			"count":2809,
			"max":[
				1.8974554538726807,
				1.612088918685913,
				1.294249176979065
			],
			"min":[
				-1.7084596157073975,
				-0.6676655411720276,
				-1.294249176979065
			],
			"type":"VEC3"
		},
		{
			"bufferView":26,
			"componentType":5126,
			"count":2809,
			"type":"VEC3"
		},
		{
			"bufferView":27,
			"componentType":5126,
			"count":2809,
			"type":"VEC2"
		},
		{
			"bufferView":28,
			"componentType":5123,
			"count":16416,
			"type":"SCALAR"
		},
		{
			"bufferView":29,
			"componentType":5126,
			"count":250,
			"max":[
				0.2509117126464844,
				0.25091126561164856,
				0.25091075897216797
			],
			"min":[
				-0.2509117126464844,
				-0.25091099739074707,
				-1.7752182483673096
			],
			"type":"VEC3"
		},
		{
			"bufferView":30,
			"componentType":5126,
			"count":250,
			"type":"VEC3"
		},
		{
			"bufferView":31,
			"componentType":5126,
			"count":250,
			"type":"VEC2"
		},
		{
			"bufferView":32,
			"componentType":5123,
			"count":1152,
			"type":"SCALAR"
		},
		{
			"bufferView":33,
			"componentType":5126,
			"count":97,
			"max":[
				1.083740472793579,
				1.3924891948699951,
				1.0967570543289185
			],
			"min":[
				-0.7627736330032349,
				0.006440252065658569,
				-1.098036289215088
			],
			"type":"VEC3"
		},
		{
			"bufferView":34,
			"componentType":5126,
			"count":97,
			"type":"VEC3"
		},
		{
			"bufferView":35,
			"componentType":5126,
			"count":97,
			"type":"VEC2"
		},
		{
			"bufferView":36,
			"componentType":5123,
			"count":468,
			"type":"SCALAR"
		},
		{
			"bufferView":37,
			"componentType":5126,
			"count":372,
			"max":[
				1.4469455480575562,
				0.49587127566337585,
				0.16247479617595673
			],
			"min":[
				0.14089170098304749,
				-0.5913720726966858,
				-5.2757415771484375
			],
			"type":"VEC3"
		},
		{
			"bufferView":38,
			"componentType":5126,
			"count":372,
			"type":"VEC3"
		},
		{
			"bufferView":39,
			"componentType":5123,
			"count":2208,
			"type":"SCALAR"
		}
	],
	"bufferViews":[
		{
			"buffer":0,
			"byteLength":1716,
			"byteOffset":0,
			"target":34962
		},
		{
			"buffer":0,
			"byteLength":1716,
			"byteOffset":1716,
			"target":34962
		},
		{
			"buffer":0,
			"byteLength":1144,
			"byteOffset":3432,
			"target":34962
		},
		{
			"buffer":0,
			"byteLength":1320,
			"byteOffset":4576,
			"target":34963
		},
		{
			"buffer":0,
			"byteLength":2304,
			"byteOffset":5896,
			"target":34962
		},
		{
			"buffer":0,
			"byteLength":2304,
			"byteOffset":8200,
			"target":34962
		},
		{
			"buffer":0,
			"byteLength":1536,
			"byteOffset":10504,
			"target":34962
		},
		{
			"buffer":0,
			"byteLength":1812,
			"byteOffset":12040,
			"target":34963
		},
		{
			"buffer":0,
			"byteLength":92376,
			"byteOffset":13852,
			"target":34962
		},
		{
			"buffer":0,
			"byteLength":92376,
			"byteOffset":106228,
			"target":34962
		},
		{
			"buffer":0,
			"byteLength":92256,
			"byteOffset":198604,
			"target":34963
		},
		{
			"buffer":0,
			"byteLength":16128,
			"byteOffset":290860,
			"target":34962
		},
		{
			"buffer":0,
			"byteLength":16128,
			"byteOffset":306988,
			"target":34962
		},
		{
			"buffer":0,
			"byteLength":16128,
			"byteOffset":323116,
			"target":34963
		},
		{
			"buffer":0,
			"byteLength":3816,
			"byteOffset":339244,
			"target":34962
		},
		{
			"buffer":0,
			"byteLength":3816,
			"byteOffset":343060,
			"target":34962
		},
		{
			"buffer":0,
			"byteLength":2544,
			"byteOffset":346876,
			"target":34962
		},
		{
			"buffer":0,
			"byteLength":3072,
			"byteOffset":349420,
			"target":34963
		},
		{
			"buffer":0,
			"byteLength":3408,
			"byteOffset":352492,
			"target":34962
		},
		{
			"buffer":0,
			"byteLength":3408,
			"byteOffset":355900,
			"target":34962
		},
		{
			"buffer":0,
			"byteLength":2272,
			"byteOffset":359308,
			"target":34962
		},
		{
			"buffer":0,
			"byteLength":2688,
			"byteOffset":361580,
			"target":34963
		},
		{
			"buffer":0,
			"byteLength":1848,
			"byteOffset":364268,
			"target":34962
		},
		{
			"buffer":0,
			"byteLength":1848,
			"byteOffset":366116,
			"target":34962
		},
		{
			"buffer":0,
			"byteLength":1824,
			"byteOffset":367964,
			"target":34963
		},
		{
			"buffer":0,
			"byteLength":33708,
			"byteOffset":369788,
			"target":34962
		},
		{
			"buffer":0,
			"byteLength":33708,
			"byteOffset":403496,
			"target":34962
		},
		{
			"buffer":0,
			"byteLength":22472,
			"byteOffset":437204,
			"target":34962
		},
		{
			"buffer":0,
			"byteLength":32832,
			"byteOffset":459676,
			"target":34963
		},
		{
			"buffer":0,
			"byteLength":3000,
			"byteOffset":492508,
			"target":34962
		},
		{
			"buffer":0,
			"byteLength":3000,
			"byteOffset":495508,
			"target":34962
		},
		{
			"buffer":0,
			"byteLength":2000,
			"byteOffset":498508,
			"target":34962
		},
		{
			"buffer":0,
			"byteLength":2304,
			"byteOffset":500508,
			"target":34963
		},
		{
			"buffer":0,
			"byteLength":1164,
			"byteOffset":502812,
			"target":34962
		},
		{
			"buffer":0,
			"byteLength":1164,
			"byteOffset":503976,
			"target":34962
		},
		{
			"buffer":0,
			"byteLength":776,
			"byteOffset":505140,
			"target":34962
		},
		{
			"buffer":0,
			"byteLength":936,
			"byteOffset":505916,
			"target":34963
		},
		{
			"buffer":0,
			"byteLength":4464,
			"byteOffset":506852,
			"target":34962
		},
		{
			"buffer":0,
			"byteLength":4464,
			"byteOffset":511316,
			"target":34962
		},
		{
			"buffer":0,
			"byteLength":4416,
			"byteOffset":515780,
			"target":34963
		}
	],
	"samplers":[
		{
			"magFilter":9729,
			"minFilter":9987
		}
	],
	"buffers":[
		{
			"byteLength":520196,
			"uri":"ImmortalJelly_Loop_GameJam.bin"
		}
	]
}
